<?xml version="1.0" encoding="UTF-8" standalone="no"?><!DOCTYPE svg PUBLIC "-//W3C//DTD SVG 1.1//EN" "http://www.w3.org/Graphics/SVG/1.1/DTD/svg11.dtd"><svg width="100%" height="100%" viewBox="0 0 608 608" version="1.1" xmlns="http://www.w3.org/2000/svg" xmlns:xlink="http://www.w3.org/1999/xlink" xml:space="preserve" xmlns:serif="http://www.serif.com/" style="fill-rule:evenodd;clip-rule:evenodd;stroke-linejoin:round;stroke-miterlimit:2;"><rect id="Artboard1" x="0" y="-0" width="608" height="608" style="fill:none;"/><path d="M581.119,207.239c9.175,-9.175 9.175,-24.072 0,-33.247l-33.246,-33.246c-9.174,-9.174 -24.071,-9.174 -33.246,0l-294.681,294.681c-9.174,9.175 -9.174,24.072 0,33.246l33.246,33.246c9.175,9.175 24.072,9.175 33.246,0l294.681,-294.68Z" style="fill:#fff;"/><path d="M253.192,501.919c9.175,9.175 24.072,9.175 33.246,0l33.246,-33.246c9.175,-9.174 9.175,-24.071 0,-33.246l-189.599,-189.599c-9.175,-9.174 -24.072,-9.174 -33.246,0l-33.246,33.246c-9.175,9.175 -9.175,24.072 -0,33.246l189.599,189.599Z" style="fill:#fff;"/></svg>