<?xml version="1.0" encoding="UTF-8" standalone="no"?><!DOCTYPE svg PUBLIC "-//W3C//DTD SVG 1.1//EN" "http://www.w3.org/Graphics/SVG/1.1/DTD/svg11.dtd"><svg width="100%" height="100%" viewBox="0 0 359 608" version="1.1" xmlns="http://www.w3.org/2000/svg" xmlns:xlink="http://www.w3.org/1999/xlink" xml:space="preserve" xmlns:serif="http://www.serif.com/" style="fill-rule:evenodd;clip-rule:evenodd;stroke-linejoin:round;stroke-miterlimit:2;"><rect id="Artboard1" x="0" y="-0" width="359" height="608" style="fill:none;"/><clipPath id="_clip1"><rect x="0" y="-0" width="359" height="608"/></clipPath><g clip-path="url(#_clip1)"><path d="M70.102,6.623c-8.766,-8.766 -22.998,-8.766 -31.764,-0l-31.764,31.764c-8.765,8.765 -8.765,22.998 0,31.764l281.544,281.544c8.766,8.765 22.998,8.765 31.764,-0l31.764,-31.764c8.765,-8.766 8.765,-22.999 -0,-31.764l-281.544,-281.544Z" style="fill:#fff;"/><path d="M6.574,537.947c-8.765,8.765 -8.765,22.998 0,31.764l31.764,31.764c8.766,8.765 22.998,8.765 31.764,-0l281.544,-281.544c8.765,-8.766 8.765,-22.999 -0,-31.764l-31.764,-31.764c-8.766,-8.766 -22.998,-8.766 -31.764,-0l-281.544,281.544Z" style="fill:#fff;"/></g></svg>