<?xml version="1.0" encoding="UTF-8" standalone="no"?>
<!DOCTYPE svg PUBLIC "-//W3C//DTD SVG 1.1//EN" "http://www.w3.org/Graphics/SVG/1.1/DTD/svg11.dtd">
<svg width="100%" height="100%" viewBox="0 0 256 256" version="1.1" xml:space="preserve" style="fill-rule:evenodd;clip-rule:evenodd;stroke-linecap:round;stroke-linejoin:round;stroke-miterlimit:1.5;">
    <g transform="matrix(1,0,0,1,-1223,-2124)">
        <g transform="matrix(0.25,0,0,0.25,1223,2124)">
            <rect id="Artboard1" x="0" y="0" width="1024" height="1024" style="fill:none;"/>
            <g id="Artboard11">
                <g transform="matrix(4.79121,0,0,6.87017,-3201.19,-15061.5)">
                    <path d="M866,2238.4C866,2218.86 843.257,2203 815.243,2203L734.757,2203C706.743,2203 684,2218.86 684,2238.4L684,2265.6C684,2285.14 706.743,2301 734.757,2301L815.243,2301C843.257,2301 866,2285.14 866,2265.6L866,2238.4Z" style="fill:white;fill-opacity:0;stroke:white;stroke-width:23.64px;"/>
                </g>
                <g transform="matrix(-4.79121,-5.86754e-16,5.86754e-16,-4.79121,4225.19,11301.8)">
                    <path d="M697.83,2217.89L755.249,2160.48" style="fill:none;stroke:white;stroke-width:29.22px;"/>
                </g>
                <g transform="matrix(1.64812,3.3879,-1.64812,3.3879,2922.62,-9468.04)">
                    <path d="M697.83,2217.89L755.249,2160.48" style="fill:none;stroke:white;stroke-width:29.22px;"/>
                </g>
            </g>
        </g>
    </g>
</svg>
