<?xml version="1.0" encoding="UTF-8" standalone="no"?><!DOCTYPE svg PUBLIC "-//W3C//DTD SVG 1.1//EN" "http://www.w3.org/Graphics/SVG/1.1/DTD/svg11.dtd"><svg width="100%" height="100%" viewBox="0 0 256 256" version="1.1" xmlns="http://www.w3.org/2000/svg" xmlns:xlink="http://www.w3.org/1999/xlink" xml:space="preserve" xmlns:serif="http://www.serif.com/" style="fill-rule:evenodd;clip-rule:evenodd;stroke-linejoin:round;stroke-miterlimit:2;"><rect id="Artboard1" x="0" y="0" width="256" height="256" style="fill:none;"/><g><rect id="Artboard11" serif:id="Artboard1" x="11" y="11" width="234" height="234" style="fill:none;"/><g id="Artboard12" serif:id="Artboard1"><g><path d="M229.289,127.944c-0,-19.026 -15.447,-34.472 -34.472,-34.472l-133.634,-0c-19.025,-0 -34.472,15.446 -34.472,34.472l0,68.943c0,19.026 15.447,34.472 34.472,34.472l133.634,0c19.025,0 34.472,-15.446 34.472,-34.472l-0,-68.943Z" style="fill:#ebebeb;fill-opacity:0;"/></g><g><circle cx="66.166" cy="34.149" r="9.508" style="fill:#ebebeb;fill-opacity:0;"/></g><g><circle cx="189.834" cy="34.149" r="9.508" style="fill:#ebebeb;fill-opacity:0;"/></g><path d="M154.65,82.046l40.167,-0c25.331,-0 45.898,20.566 45.898,45.897l0,68.944c0,25.332 -20.567,45.899 -45.898,45.899l-133.634,-0c-25.331,-0 -45.897,-20.567 -45.897,-45.899l-0,-68.944c-0,-25.331 20.566,-45.897 45.897,-45.897l40.167,-0l-30.008,-27.609c-1.656,0.422 -3.39,0.646 -5.176,0.646c-11.554,-0 -20.934,-9.38 -20.934,-20.934c-0,-11.553 9.38,-20.934 20.934,-20.934c11.553,0 20.933,9.381 20.933,20.934c0,1.182 -0.098,2.341 -0.286,3.47l41.187,37.894l41.187,-37.894c-0.188,-1.129 -0.286,-2.288 -0.286,-3.47c-0,-11.553 9.38,-20.934 20.933,-20.934c11.554,0 20.934,9.381 20.934,20.934c0,11.554 -9.38,20.934 -20.934,20.934c-1.786,-0 -3.52,-0.224 -5.176,-0.646l-30.008,27.609Zm63.213,45.897c-0,-12.719 -10.327,-23.045 -23.046,-23.045l-133.634,-0c-12.719,-0 -23.046,10.326 -23.046,23.045l0,68.944c0,12.719 10.327,23.046 23.046,23.046l133.634,-0c12.719,-0 23.046,-10.327 23.046,-23.046l-0,-68.944Zm-98.464,5.932l0,20.914c0,5.771 -4.685,10.457 -10.457,10.457l-41.827,-0c-5.772,-0 -10.457,-4.686 -10.457,-10.457l-0,-20.914c-0,-5.771 4.685,-10.457 10.457,-10.457l41.827,0c5.772,0 10.457,4.686 10.457,10.457Z" style="fill:#fff;"/></g></g></svg>