<?xml version="1.0" encoding="UTF-8" standalone="no"?><!DOCTYPE svg PUBLIC "-//W3C//DTD SVG 1.1//EN" "http://www.w3.org/Graphics/SVG/1.1/DTD/svg11.dtd"><svg width="100%" height="100%" viewBox="0 0 465 465" version="1.1" xml:space="preserve" style="fill-rule:evenodd;clip-rule:evenodd;stroke-linecap:round;stroke-linejoin:round;stroke-miterlimit:1.5;"><rect id="Artboard2" x="0" y="0" width="464.86" height="464.86" style="fill:none;"/><path d="M232.43,298.388c-21.449,0.009 -62.049,-1.87 -80.697,1.07c-32.178,5.075 -46.244,57.054 -85.239,79.756c-7.377,4.294 -16.717,-0.424 -26.046,-6.772c-27.26,-18.549 -23.153,-77.49 -6.398,-129.183c16.059,-49.545 32.167,-107.215 50.925,-125.973c26.139,-26.139 85.5,-25.295 147.455,-25.186l0.266,-0c61.955,-0.109 121.316,-0.953 147.456,25.186c18.757,18.758 34.865,76.428 50.924,125.973c16.756,51.693 20.863,110.634 -6.397,129.183c-9.33,6.348 -18.67,11.066 -26.046,6.772c-38.995,-22.702 -53.061,-74.681 -85.24,-79.756c-18.648,-2.94 -59.247,-1.061 -80.697,-1.07c-0.088,-0 -0.177,-0 -0.266,-0Z" style="fill:none;stroke:#fff;stroke-width:38.8px;"/><path d="M82.841,115.208c8.456,-21.76 34.728,-32.546 59.433,-34.635c10.189,-0.862 13.534,0.309 13.534,0.309c-0,0 6.48,5.101 9.112,7.886c-18.1,1.65 -58.787,1.146 -82.079,26.44Z" style="stroke:#fff;stroke-width:38.8px;"/><path d="M382.019,115.208c-8.456,-21.76 -34.728,-32.546 -59.433,-34.635c-10.189,-0.862 -13.534,0.309 -13.534,0.309c0,0 -6.48,5.101 -9.112,7.886c18.1,1.65 58.787,1.146 82.079,26.44Z" style="stroke:#fff;stroke-width:38.8px;"/><circle cx="182.072" cy="230.969" r="32.05" style="fill:#fff;"/><path d="M102.174,184.148c-0.868,-2.906 -1.334,-5.985 -1.334,-9.172c-0,-3.186 0.466,-6.265 1.334,-9.171l21.535,0l-0,-21.535c2.906,-0.867 5.984,-1.334 9.171,-1.334c3.186,0 6.265,0.467 9.171,1.334l0,21.535l21.535,0c0.868,2.906 1.334,5.985 1.334,9.171c-0,3.187 -0.466,6.266 -1.334,9.172l-21.535,-0l0,21.534c-2.906,0.868 -5.985,1.335 -9.171,1.335c-3.187,-0 -6.265,-0.467 -9.171,-1.335l-0,-21.534l-21.535,-0Z" style="fill:#fff;"/><circle cx="282.798" cy="230.959" r="32.04" style="fill:#fff;"/><circle cx="316.498" cy="162.133" r="16.025" style="fill:#fff;"/><path d="M364.573,194.183c0,8.845 -7.181,16.025 -16.025,16.025c-8.844,0 -16.025,-7.18 -16.025,-16.025c0,-8.844 7.181,-16.025 16.025,-16.025c8.844,0 16.025,7.181 16.025,16.025Z" style="fill:#fff;"/><path d="M248.723,178.158c0,4.667 -3.789,8.456 -8.456,8.456l-15.141,0c-4.667,0 -8.456,-3.789 -8.456,-8.456c-0,-4.667 3.789,-8.456 8.456,-8.456l15.141,0c4.667,0 8.456,3.789 8.456,8.456Z" style="fill:#fff;"/></svg>