<?xml version="1.0" encoding="UTF-8" standalone="no"?><!DOCTYPE svg PUBLIC "-//W3C//DTD SVG 1.1//EN" "http://www.w3.org/Graphics/SVG/1.1/DTD/svg11.dtd"><svg width="100%" height="100%" viewBox="0 0 608 608" version="1.1" xmlns="http://www.w3.org/2000/svg" xmlns:xlink="http://www.w3.org/1999/xlink" xml:space="preserve" xmlns:serif="http://www.serif.com/" style="fill-rule:evenodd;clip-rule:evenodd;stroke-linejoin:round;stroke-miterlimit:2;"><rect id="Artboard1" x="0" y="-0" width="608" height="608" style="fill:none;"/><clipPath id="_clip1"><rect x="0" y="-0" width="608" height="608"/></clipPath><g clip-path="url(#_clip1)"><path d="M304,609c-133.211,-0 -207.265,-0 -255.633,-48.367c-48.367,-48.368 -48.367,-122.422 -48.367,-255.633c-0,-133.211 -0,-207.265 48.367,-255.633c48.368,-48.367 122.422,-48.367 255.633,-48.367c133.211,-0 207.265,-0 255.633,48.367c48.367,48.368 48.367,122.422 48.367,255.633c0,133.211 0,207.265 -48.367,255.633c-48.368,48.367 -122.422,48.367 -255.633,48.367Zm-36.7,-340.7l-125.95,-0c-10.128,-0 -18.35,8.222 -18.35,18.35l-0,36.7c-0,10.128 8.222,18.35 18.35,18.35l125.95,0l-0,125.95c-0,10.128 8.222,18.35 18.35,18.35l36.7,0c10.128,0 18.35,-8.222 18.35,-18.35l0,-125.95l125.95,0c10.128,0 18.35,-8.222 18.35,-18.35l0,-36.7c0,-10.128 -8.222,-18.35 -18.35,-18.35l-125.95,-0l0,-125.95c0,-10.128 -8.222,-18.35 -18.35,-18.35l-36.7,-0c-10.128,-0 -18.35,8.222 -18.35,18.35l-0,125.95Z" style="fill:#fff;"/></g></svg>