<?xml version="1.0" encoding="UTF-8" standalone="no"?>
<!DOCTYPE svg PUBLIC "-//W3C//DTD SVG 1.1//EN" "http://www.w3.org/Graphics/SVG/1.1/DTD/svg11.dtd">
<svg width="100%" height="100%" viewBox="0 0 256 256" version="1.1" xmlns="http://www.w3.org/2000/svg" xmlns:xlink="http://www.w3.org/1999/xlink" xml:space="preserve" xmlns:serif="http://www.serif.com/" style="fill-rule:evenodd;clip-rule:evenodd;stroke-linecap:round;stroke-linejoin:round;stroke-miterlimit:1.5;">
    <rect id="Artboard1" x="0" y="0" width="256" height="256" style="fill:none;"/>
    <g id="Artboard11" serif:id="Artboard1">
        <g id="stroke-fg" transform="matrix(1.1978,0,0,1.71754,-800.298,-3765.38)">
            <path d="M866,2238.4C866,2218.86 843.257,2203 815.243,2203L734.757,2203C706.743,2203 684,2218.86 684,2238.4L684,2265.6C684,2285.14 706.743,2301 734.757,2301L815.243,2301C843.257,2301 866,2285.14 866,2265.6L866,2238.4Z" style="fill:white;fill-opacity:0;stroke:white;stroke-width:23.64px;"/>
        </g>
        <g id="stroke-fg1" serif:id="stroke-fg" transform="matrix(-1.1978,-1.46688e-16,1.46688e-16,-1.1978,1056.3,2825.45)">
            <path d="M697.83,2217.89L755.249,2160.48" style="fill:none;stroke:white;stroke-width:29.22px;"/>
        </g>
        <g id="stroke-fg2" serif:id="stroke-fg" transform="matrix(0.41203,0.846975,-0.41203,0.846975,730.655,-2367.01)">
            <path d="M697.83,2217.89L755.249,2160.48" style="fill:none;stroke:white;stroke-width:29.22px;"/>
        </g>
    </g>
</svg>
