<?xml version="1.0" encoding="UTF-8" standalone="no"?>
<!DOCTYPE svg PUBLIC "-//W3C//DTD SVG 1.1//EN" "http://www.w3.org/Graphics/SVG/1.1/DTD/svg11.dtd">
<svg width="100%" height="100%" viewBox="0 0 465 465" version="1.1" xmlns="http://www.w3.org/2000/svg" xmlns:xlink="http://www.w3.org/1999/xlink" xml:space="preserve" xmlns:serif="http://www.serif.com/" style="fill-rule:evenodd;clip-rule:evenodd;stroke-linecap:round;stroke-linejoin:round;stroke-miterlimit:1.5;">
    <rect id="Artboard2" x="0" y="0" width="464.86" height="464.86" style="fill:none;"/>
    <g id="stroke-fg" transform="matrix(1,0,0,1,0,4.63316)">
        <path d="M232.43,298.388C210.981,298.397 170.381,296.518 151.733,299.458C119.555,304.533 105.489,356.512 66.494,379.214C59.117,383.508 49.777,378.79 40.448,372.442C13.188,353.893 17.295,294.952 34.05,243.259C50.109,193.714 66.217,136.044 84.975,117.286C111.114,91.147 170.475,91.991 232.43,92.1L232.696,92.1C294.651,91.991 354.012,91.147 380.152,117.286C398.909,136.044 415.017,193.714 431.076,243.259C447.832,294.952 451.939,353.893 424.679,372.442C415.349,378.79 406.009,383.508 398.633,379.214C359.638,356.512 345.572,304.533 313.393,299.458C294.745,296.518 254.146,298.397 232.696,298.388L232.43,298.388Z" style="fill:none;stroke:white;stroke-width:38.8px;"/>
    </g>
    <g id="controller-buttons" transform="matrix(1,0,0,1,0,4.63316)">
        <path id="fill-fg_stroke-fg" d="M82.841,115.208C91.297,93.448 117.569,82.662 142.274,80.573C152.463,79.711 155.808,80.882 155.808,80.882C155.808,80.882 162.288,85.983 164.92,88.768C146.82,90.418 106.133,89.914 82.841,115.208Z" style="stroke:white;stroke-width:38.8px;"/>
        <path id="fill-fg_stroke-fg1" serif:id="fill-fg_stroke-fg" d="M382.019,115.208C373.563,93.448 347.291,82.662 322.586,80.573C312.397,79.711 309.052,80.882 309.052,80.882C309.052,80.882 302.572,85.983 299.94,88.768C318.04,90.418 358.727,89.914 382.019,115.208Z" style="stroke:white;stroke-width:38.8px;"/>
        <circle id="fill-fg" cx="182.072" cy="230.969" r="32.05" style="fill:white;"/>
        <path id="fill-fg1" serif:id="fill-fg" d="M102.174,184.148C101.306,181.242 100.84,178.163 100.84,174.976C100.84,171.79 101.306,168.711 102.174,165.805L123.709,165.805L123.709,144.27C126.615,143.403 129.693,142.936 132.88,142.936C136.066,142.936 139.145,143.403 142.051,144.27L142.051,165.805L163.586,165.805C164.454,168.711 164.92,171.79 164.92,174.976C164.92,178.163 164.454,181.242 163.586,184.148L142.051,184.148L142.051,205.682C139.145,206.55 136.066,207.017 132.88,207.017C129.693,207.017 126.615,206.55 123.709,205.682L123.709,184.148L102.174,184.148Z" style="fill:white;"/>
        <circle id="fill-fg2" serif:id="fill-fg" cx="282.798" cy="230.959" r="32.04" style="fill:white;"/>
        <circle id="fill-fg3" serif:id="fill-fg" cx="316.498" cy="162.133" r="16.025" style="fill:white;"/>
        <path id="fill-fg4" serif:id="fill-fg" d="M364.573,194.183C364.573,203.028 357.392,210.208 348.548,210.208C339.704,210.208 332.523,203.028 332.523,194.183C332.523,185.339 339.704,178.158 348.548,178.158C357.392,178.158 364.573,185.339 364.573,194.183Z" style="fill:white;"/>
        <path id="fill-fg5" serif:id="fill-fg" d="M248.723,178.158C248.723,182.825 244.934,186.614 240.267,186.614L225.126,186.614C220.459,186.614 216.67,182.825 216.67,178.158C216.67,173.491 220.459,169.702 225.126,169.702L240.267,169.702C244.934,169.702 248.723,173.491 248.723,178.158Z" style="fill:white;"/>
    </g>
</svg>
