<?xml version="1.0" encoding="UTF-8" standalone="no"?>
<!DOCTYPE svg PUBLIC "-//W3C//DTD SVG 1.1//EN" "http://www.w3.org/Graphics/SVG/1.1/DTD/svg11.dtd">
<svg width="100%" height="100%" viewBox="0 0 256 256" version="1.1" xmlns="http://www.w3.org/2000/svg" xmlns:xlink="http://www.w3.org/1999/xlink" xml:space="preserve" xmlns:serif="http://www.serif.com/" style="fill-rule:evenodd;clip-rule:evenodd;stroke-linecap:round;stroke-linejoin:round;stroke-miterlimit:1.5;">
    <rect id="Artboard1" x="0" y="0" width="256" height="256" style="fill:none;"/>
    <g id="Artboard11" serif:id="Artboard1">
        <g id="stroke-fg" transform="matrix(1.1978,0,0,1.1978,-800.298,-2569.45)">
            <path d="M866,2252C866,2224.96 844.044,2203 817,2203L733,2203C705.956,2203 684,2224.96 684,2252C684,2279.04 705.956,2301 733,2301L817,2301C844.044,2301 866,2279.04 866,2252Z" style="fill:white;fill-opacity:0;stroke:white;stroke-width:29.22px;"/>
        </g>
        <g id="stroke-fg1" serif:id="stroke-fg" transform="matrix(1.1978,0,0,1.1978,-800.298,-2569.45)">
            <path d="M697.83,2217.89L755.249,2160.48" style="fill:none;stroke:white;stroke-width:29.22px;"/>
        </g>
        <g id="stroke-fg2" serif:id="stroke-fg" transform="matrix(-1.1978,-1.46688e-16,1.46688e-16,-1.1978,1056.3,2825.45)">
            <path d="M697.83,2217.89L755.249,2160.48" style="fill:none;stroke:white;stroke-width:29.22px;"/>
        </g>
    </g>
</svg>
