<?xml version="1.0" encoding="UTF-8" standalone="no"?><!DOCTYPE svg PUBLIC "-//W3C//DTD SVG 1.1//EN" "http://www.w3.org/Graphics/SVG/1.1/DTD/svg11.dtd"><svg width="100%" height="100%" viewBox="0 0 608 608" version="1.1" xml:space="preserve" style="fill-rule:evenodd;clip-rule:evenodd;stroke-linejoin:round;stroke-miterlimit:2;"><rect id="Artboard1" x="0" y="-0" width="608" height="608" style="fill:none;"/><clipPath id="_clip1"><rect x="0" y="-0" width="608" height="608"/></clipPath><g clip-path="url(#_clip1)"><path d="M304,609c-133.211,0 -207.265,0 -255.633,-48.367c-48.367,-48.368 -48.367,-122.422 -48.367,-255.633c-0,-133.211 -0,-207.265 48.367,-255.633c48.368,-48.367 122.422,-48.367 255.633,-48.367c133.211,0 207.265,0 255.633,48.367c48.367,48.368 48.367,122.422 48.367,255.633c-0,133.211 -0,207.265 -48.367,255.633c-48.368,48.367 -122.422,48.367 -255.633,48.367Zm13.415,-388.156c47.684,6.539 84.417,47.44 84.417,96.92c-0,53.995 -43.837,97.832 -97.832,97.832c-54.031,-0 -97.832,-43.801 -97.832,-97.832l-94.168,-0c0,106.038 85.961,192 192,192c105.968,-0 192,-86.033 192,-192c-0,-101.529 -78.805,-184.652 -178.585,-191.539l-0,-25.989l-148.402,74.201l148.402,74.201l-0,-27.794Z" style="fill:#fff;"/></g></svg>