<?xml version="1.0" encoding="UTF-8" standalone="no"?><!DOCTYPE svg PUBLIC "-//W3C//DTD SVG 1.1//EN" "http://www.w3.org/Graphics/SVG/1.1/DTD/svg11.dtd"><svg width="100%" height="100%" viewBox="0 0 608 608" version="1.1" xml:space="preserve" style="fill-rule:evenodd;clip-rule:evenodd;stroke-linejoin:round;stroke-miterlimit:2;"><rect id="Artboard1" x="0" y="-0" width="608" height="608" style="fill:none;"/><clipPath id="_clip1"><rect x="0" y="-0" width="608" height="608"/></clipPath><g clip-path="url(#_clip1)"><path d="M304,609c-133.211,-0 -207.265,-0 -255.633,-48.367c-48.367,-48.368 -48.367,-122.422 -48.367,-255.633c-0,-133.211 -0,-207.265 48.367,-255.633c48.368,-48.367 122.422,-48.367 255.633,-48.367c133.211,-0 207.265,-0 255.633,48.367c48.367,48.368 48.367,122.422 48.367,255.633c0,133.211 0,207.265 -48.367,255.633c-48.368,48.367 -122.422,48.367 -255.633,48.367Zm-51.827,-254.867l-87.441,-87.442c-7.162,-7.161 -18.79,-7.161 -25.951,0l-25.951,25.952c-7.162,7.161 -7.162,18.789 -0,25.951l126.368,126.368c7.161,7.161 18.789,7.161 25.951,-0l230.021,-230.022c7.162,-7.161 7.162,-18.789 0,-25.951l-25.951,-25.951c-7.161,-7.161 -18.789,-7.161 -25.951,0l-191.095,191.095Z" style="fill:#fff;"/></g></svg>