<?xml version="1.0" encoding="UTF-8" standalone="no"?>
<!DOCTYPE svg PUBLIC "-//W3C//DTD SVG 1.1//EN" "http://www.w3.org/Graphics/SVG/1.1/DTD/svg11.dtd">
<svg width="100%" height="100%" viewBox="0 0 1024 1024" version="1.1" xmlns="http://www.w3.org/2000/svg" xmlns:xlink="http://www.w3.org/1999/xlink" xml:space="preserve" xmlns:serif="http://www.serif.com/" style="fill-rule:evenodd;clip-rule:evenodd;stroke-linejoin:round;stroke-miterlimit:2;">
    <g transform="matrix(1,0,0,1,0,-1440.89)">
        <g transform="matrix(1,0,0,1,0,1440.89)">
            <rect id="Artboard1" x="0" y="0" width="1024" height="1024" style="fill:none;"/>
            <g id="Artboard11" serif:id="Artboard1">
                <g transform="matrix(0.91475,0,0,1.14262,43.648,-47.8557)">
                    <path d="M996.555,489.76C996.555,416.895 922.661,357.738 831.645,357.738L192.355,357.738C101.339,357.738 27.445,416.895 27.445,489.76L27.445,753.804C27.445,826.669 101.339,885.826 192.355,885.826L831.645,885.826C922.661,885.826 996.555,826.669 996.555,753.804L996.555,489.76Z" style="fill:rgb(235,235,235);fill-opacity:0;"/>
                </g>
                <g transform="matrix(1.23009,0,0,1.23009,6.8109,-50.037)">
                    <circle cx="190.716" cy="123.031" r="33.825" style="fill:rgb(235,235,235);fill-opacity:0;"/>
                </g>
                <g transform="matrix(1.23009,0,0,1.23009,547.994,-50.037)">
                    <circle cx="190.716" cy="123.031" r="33.825" style="fill:rgb(235,235,235);fill-opacity:0;"/>
                </g>
                <path d="M628.621,310.902L804.395,310.902C915.248,310.902 1005.25,400.9 1005.25,511.752L1005.25,813.454C1005.25,924.307 915.248,1014.31 804.395,1014.31L219.605,1014.31C108.752,1014.31 18.754,924.307 18.754,813.454L18.754,511.752C18.754,400.9 108.752,310.902 219.605,310.902L395.379,310.902L264.059,190.083C256.814,191.929 249.225,192.91 241.409,192.91C190.849,192.91 149.801,151.862 149.801,101.302C149.801,50.743 190.849,9.695 241.409,9.695C291.968,9.695 333.016,50.743 333.016,101.302C333.016,106.475 332.586,111.548 331.761,116.487L512,282.312L692.239,116.487C691.414,111.548 690.984,106.475 690.984,101.302C690.984,50.743 732.032,9.695 782.591,9.695C833.151,9.695 874.199,50.743 874.199,101.302C874.199,151.862 833.151,192.91 782.591,192.91C774.775,192.91 767.186,191.929 759.941,190.083L628.621,310.902ZM905.246,511.752C905.246,456.091 860.056,410.902 804.395,410.902L219.605,410.902C163.944,410.902 118.754,456.091 118.754,511.752L118.754,813.454C118.754,869.115 163.944,914.305 219.605,914.305L804.395,914.305C860.056,914.305 905.246,869.115 905.246,813.454L905.246,511.752ZM474.363,537.709L474.363,629.23C474.363,654.485 453.858,674.99 428.602,674.99L245.561,674.99C220.306,674.99 199.801,654.485 199.801,629.23L199.801,537.709C199.801,512.453 220.306,491.949 245.561,491.949L428.602,491.949C453.858,491.949 474.363,512.453 474.363,537.709Z" style="fill:white;"/>
            </g>
        </g>
    </g>
</svg>
